<svg width="114" height="76" viewBox="0 0 114 76" fill="none" xmlns="http://www.w3.org/2000/svg">
<g clip-path="url(#clip0_437_349)">
<path d="M33.705 2.56446L2.59131 32.7931C1.03735 34.1183 0.0449219 35.6744 0.0449219 37.9009C0.0449219 40.1174 1.03847 41.6791 2.59131 43.0143L33.705 73.2329C33.9048 73.4381 34.0979 73.5199 34.262 73.5199C34.5567 73.5199 34.7599 73.2508 34.751 72.9347C34.7421 72.7486 34.6617 72.5344 34.4775 72.3494C27.1743 63.237 21.8605 52.786 21.8605 38.0108C21.8605 23.2266 27.1743 12.5704 34.4775 3.45126C34.6617 3.26852 34.742 3.05775 34.751 2.86716C34.761 2.54428 34.5567 2.28306 34.262 2.28306C34.0979 2.2797 33.9048 2.36042 33.705 2.56446Z" fill="#ED1C24"/>
<path d="M57.6249 0.00512695C45.4422 0.00512695 40.6821 17.3432 40.6821 38.0087C40.6821 58.681 45.4422 75.7881 57.6249 75.7881C64.9358 75.7881 71.1673 71.4886 71.1874 67.9548C71.1907 67.1813 70.8938 66.4402 70.2474 65.7933C66.7823 62.4311 65.427 59.0711 65.417 56.1058C65.3947 50.4453 70.2843 46.2287 74.7921 46.2287C80.9889 46.2287 84.6438 51.1202 84.6438 57.4545C84.6438 63.4569 82.0974 68.456 79.3266 72.4595C79.2172 72.6232 79.1681 72.8059 79.1681 72.9662C79.1703 73.2801 79.3546 73.538 79.6303 73.538C79.7978 73.538 79.9942 73.4483 80.2086 73.2319L111.33 43.0134C112.884 41.6792 113.876 40.1164 113.876 37.9C113.876 35.6746 112.883 34.1173 111.33 32.7922L80.2086 2.56351C79.9953 2.34938 79.7989 2.25857 79.6303 2.25857C79.3523 2.25857 79.1704 2.51867 79.1681 2.8337C79.1681 2.99514 79.2172 3.17564 79.3266 3.34157C82.0963 7.33947 84.6438 12.3441 84.6438 18.3421C84.6438 24.6719 80.9889 29.5678 74.7921 29.5678C70.2843 29.5678 65.3947 25.3547 65.417 19.693C65.427 16.7277 66.7823 13.3643 70.2474 10.0055C70.8938 9.35523 71.1907 8.6209 71.1874 7.84621C71.1673 4.30685 64.9358 0.00512695 57.6249 0.00512695Z" fill="#005BAB"/>
</g>
<defs>
<clipPath id="clip0_437_349">
<rect width="114" height="76" fill="white"/>
</clipPath>
</defs>
</svg>
