<svg width="200" height="31" viewBox="0 0 200 31" fill="none" xmlns="http://www.w3.org/2000/svg">
<path fill-rule="evenodd" clip-rule="evenodd" d="M178.667 16.543C178.667 20.3754 176.097 23.0517 172.418 23.0517C168.738 23.0517 166.169 20.3754 166.169 16.543C166.169 12.71 168.738 10.033 172.418 10.033C176.097 10.033 178.667 12.71 178.667 16.543ZM172.418 6.9976C167.034 6.9976 163.127 11.0121 163.127 16.543C163.127 22.0733 167.034 26.0871 172.418 26.0871C177.801 26.0871 181.709 22.0733 181.709 16.543C181.709 11.0121 177.801 6.9976 172.418 6.9976ZM146.362 7.409H145.518C144.912 7.409 144.418 7.90177 144.418 8.50692V24.614C144.418 25.2179 144.912 25.7106 145.518 25.7106H146.362C146.968 25.7106 147.462 25.2179 147.462 24.6134V8.50692C147.462 7.90177 146.968 7.409 146.362 7.409ZM145.925 0.595459C144.551 0.595459 143.553 1.46346 143.553 2.6589C143.553 3.87629 144.551 4.75979 145.925 4.75979C147.277 4.75979 148.258 3.87629 148.258 2.6589C148.258 1.4641 147.277 0.595459 145.925 0.595459ZM134.269 6.9976C131.783 6.9976 129.475 8.1685 128.005 10.1512C126.535 8.1685 124.227 6.9976 121.74 6.9976C120.126 6.9976 118.465 7.75 116.995 9.13144L116.995 8.50756C116.995 7.90177 116.502 7.40965 115.895 7.40965H115.052C114.445 7.40965 113.952 7.90113 113.952 8.50627V24.6134C113.952 25.2185 114.445 25.7113 115.052 25.7113H115.9C116.507 25.7113 117.001 25.2179 117.001 24.6134V14.7366C117.001 12.1468 119.126 10.0408 121.74 10.0408C124.354 10.0408 126.48 12.1468 126.48 14.736V24.6134C126.48 25.2185 126.973 25.7113 127.581 25.7113H128.429C129.035 25.7113 129.529 25.2179 129.529 24.6134V14.7366C129.529 12.1468 131.655 10.0408 134.269 10.0408C136.883 10.0408 139.009 12.1468 139.009 14.736V24.6134C139.009 25.2185 139.503 25.7113 140.109 25.7113H140.957C141.564 25.7113 142.058 25.2179 142.058 24.6134V14.7366C142.058 10.469 138.564 6.9976 134.269 6.9976ZM191.725 6.9976C190.111 6.9976 188.449 7.75 186.979 9.13144V8.50756C186.979 7.90177 186.486 7.40965 185.879 7.40965H185.037C184.43 7.40965 183.937 7.90113 183.937 8.50627V24.6134C183.937 25.2185 184.43 25.7113 185.037 25.7113H185.885C186.491 25.7113 186.985 25.2179 186.985 24.6134V14.7366C186.985 12.1468 189.111 10.0408 191.725 10.0408C194.339 10.0408 196.465 12.1468 196.465 14.736V24.6134C196.465 25.2185 196.959 25.7113 197.565 25.7113H198.413C199.02 25.7113 199.513 25.2179 199.513 24.6134V14.7366C199.513 10.469 196.019 6.9976 191.725 6.9976ZM96.466 16.543C96.466 20.3754 93.8964 23.0517 90.2175 23.0517C86.5385 23.0517 83.9683 20.3754 83.9683 16.543C83.9683 12.71 86.5385 10.033 90.2175 10.033C93.8964 10.033 96.466 12.71 96.466 16.543ZM98.4097 7.409H97.567C97.2731 7.409 96.9961 7.52331 96.7883 7.73063C96.5812 7.93858 96.466 8.21435 96.466 8.50821V9.89933C94.6731 8.0219 92.4809 6.99825 90.2175 6.99825C84.8336 6.99825 80.9262 11.0121 80.9262 16.543C80.9262 22.0733 84.8336 26.0871 90.2175 26.0871C92.4809 26.0871 94.6731 25.0629 96.4673 23.1841L96.466 24.6127C96.466 24.9059 96.5806 25.181 96.7883 25.389C96.9961 25.597 97.2738 25.7106 97.567 25.7106H98.4097C99.0162 25.7106 99.51 25.2185 99.51 24.6127V8.50756C99.51 7.90242 99.0162 7.409 98.4097 7.409ZM70.8388 6.9976C68.3527 6.9976 66.0446 8.1685 64.5747 10.1512C63.1042 8.1685 60.7961 6.9976 58.3094 6.9976C56.6964 6.9976 55.0343 7.75 53.565 9.13144V8.50821C53.565 8.21435 53.4511 7.93794 53.2427 7.73063C53.0349 7.52267 52.7586 7.409 52.4647 7.409H51.622C51.0155 7.409 50.5217 7.90177 50.5217 8.50692V24.6127C50.5217 25.2185 51.0155 25.7106 51.622 25.7106H52.4699C53.0764 25.7106 53.5702 25.2179 53.5702 24.6127V14.7366C53.5702 12.1475 55.6964 10.0414 58.31 10.0414C60.9236 10.0414 63.0505 12.1475 63.0505 14.7366V24.614C63.0505 25.2191 63.5437 25.7119 64.1508 25.7119H64.9987C65.6052 25.7119 66.099 25.2185 66.099 24.614V14.7366C66.099 12.1468 68.2252 10.0408 70.8388 10.0408C73.4524 10.0408 75.5793 12.1468 75.5793 14.736V24.6134C75.5793 25.2185 76.0725 25.7113 76.679 25.7113H77.5268C78.134 25.7113 78.6272 25.2179 78.6272 24.6134V14.7366C78.6272 10.469 75.1333 6.9976 70.8388 6.9976ZM110.522 7.43742C108.45 7.58983 106.606 8.37065 105.142 9.70558V8.50821C105.143 8.21435 105.029 7.93858 104.821 7.73127C104.614 7.52331 104.337 7.409 104.043 7.409H103.199C102.593 7.409 102.099 7.90177 102.099 8.50692V24.614C102.099 25.2179 102.593 25.7106 103.199 25.7106H104.043C104.65 25.7106 105.143 25.2179 105.143 24.6134V16.9079C105.162 13.3584 107.407 10.7738 110.727 10.4754C111.281 10.4244 111.714 9.94648 111.714 9.3859V8.53663C111.714 8.23308 111.586 7.93923 111.362 7.73192C111.135 7.52267 110.829 7.41288 110.522 7.43806M160.944 19.8084H160.102C159.496 19.8084 159.003 20.3011 159.003 20.9063V21.2266C159.003 22.2238 158.189 23.0356 157.189 23.0356C156.19 23.0356 155.377 22.2238 155.377 21.2272V10.0756H159.867C160.473 10.0756 160.967 9.58288 160.967 8.97773V8.50627C160.967 7.90048 160.473 7.40835 159.867 7.40835H155.377V3.09871C155.377 2.49292 154.883 2.00079 154.277 2.00079H153.433C152.827 2.00079 152.333 2.49292 152.333 3.09871V7.409H150.631C150.025 7.409 149.531 7.90113 149.531 8.50692V8.97838C149.531 9.58352 150.025 10.0763 150.631 10.0763H152.333V21.2415C152.333 23.2093 153.501 24.9957 155.239 25.688C155.884 25.9438 156.544 26.0704 157.193 26.0704C158.156 26.0704 159.093 25.7907 159.907 25.2392C161.245 24.3337 162.044 22.8341 162.043 21.2266V20.9056C162.043 20.3011 161.55 19.8084 160.944 19.8084Z" fill="#FE6F5F"/>
<mask id="mask0_470_267" style="mask-type:luminance" maskUnits="userSpaceOnUse" x="0" y="0" width="37" height="31">
<path d="M0 0H36.2518V30.0584H0V0Z" fill="white"/>
</mask>
<g mask="url(#mask0_470_267)">
<path fill-rule="evenodd" clip-rule="evenodd" d="M33.466 27.309C33.0084 27.7656 32.7566 27.8069 32.7275 27.7966C32.4686 27.69 32.0356 26.8821 31.857 25.5937C33.1534 25.7726 33.8816 26.2143 33.9858 26.4655C34.0227 26.5553 33.9139 26.8621 33.466 27.309ZM29.3508 23.0943H8.75987C5.35728 23.0943 2.589 20.3321 2.589 16.9369C2.589 13.5411 5.35728 10.7789 8.75987 10.7789H13.7236C14.3294 10.7905 15.2647 10.8402 16.0084 10.9894C16.0951 11.0069 16.1812 11.0153 16.2667 11.0153C16.8699 11.0153 17.4097 10.5929 17.534 9.97999C17.6757 9.28055 17.2227 8.59919 16.5217 8.45776C16.301 8.41255 16.0731 8.37638 15.8453 8.34538C15.0317 7.08601 13.8615 4.76101 14.2201 3.49711C14.2887 3.25492 14.4375 2.94815 14.9838 2.71888C15.9288 2.3204 16.565 2.93201 18.2634 5.23569C19.9896 7.5749 22.3534 10.7789 26.699 10.7789L29.3508 10.7769V23.0943ZM36.0744 25.602C35.4977 24.2109 33.7301 23.5418 31.9398 23.3326V10.7789C31.9398 9.35482 30.778 8.19555 29.3508 8.19555H26.699C23.6621 8.19555 21.9773 5.91253 20.3489 3.70442C18.7534 1.54153 16.9456 -0.910702 13.978 0.33834C12.8233 0.824007 12.0453 1.67457 11.7282 2.79767C11.2317 4.55434 11.9955 6.66428 12.7741 8.19555H8.75987C3.92945 8.19619 0 12.117 0 16.9375C0 21.7568 3.92945 25.6783 8.75987 25.6783H29.5922C29.8032 27.4627 30.4725 29.3078 31.8621 29.8813C32.1094 29.9847 32.4065 30.0596 32.745 30.0596C33.3883 30.0596 34.1819 29.787 35.0647 28.9061C36.5294 27.4433 36.3262 26.2091 36.0744 25.6027V25.602Z" fill="#FE6F5F"/>
</g>
<path fill-rule="evenodd" clip-rule="evenodd" d="M25.1476 13.3623V20.5104C25.1476 21.1336 25.6537 21.6386 26.2783 21.6386C26.9023 21.6386 27.4084 21.1336 27.4084 20.5104V13.3623C27.4084 12.7391 26.9023 12.234 26.2783 12.234C25.6537 12.234 25.1476 12.7391 25.1476 13.3623Z" fill="#FE6F5F"/>
</svg>
