<svg width="1440" height="1024" viewBox="0 0 1440 1024" xmlns="http://www.w3.org/2000/svg">
  <rect width="1440" height="1024" fill="#F4F4F5"/>
  <rect width="1440" height="72" fill="#FFFFFF"/>
  <rect x="40" y="24" width="140" height="24" rx="4" fill="#D4D4D8"/>
  <rect x="1140" y="24" width="260" height="24" rx="4" fill="#E4E4E7"/>
  <rect x="40" y="110" width="220" height="28" rx="4" fill="#D4D4D8"/>
  <g fill="#D4D4D8">
    <rect x="40" y="170" width="220" height="20" rx="3"/>
    <rect x="40" y="200" width="220" height="20" rx="3"/>
    <rect x="40" y="230" width="220" height="20" rx="3"/>
    <rect x="40" y="260" width="220" height="20" rx="3"/>
  </g>
  <g fill="#FFFFFF" stroke="#D4D4D8">
    <rect x="300" y="150" width="260" height="220" rx="8"/>
    <rect x="580" y="150" width="260" height="220" rx="8"/>
    <rect x="860" y="150" width="260" height="220" rx="8"/>
    <rect x="1140" y="150" width="260" height="220" rx="8"/>
    <rect x="300" y="390" width="260" height="220" rx="8"/>
    <rect x="580" y="390" width="260" height="220" rx="8"/>
    <rect x="860" y="390" width="260" height="220" rx="8"/>
    <rect x="1140" y="390" width="260" height="220" rx="8"/>
  </g>
  <text x="740" y="1000" font-family="sans-serif" font-size="20" fill="#A1A1AA" text-anchor="middle">PLACEHOLDER — à remplacer par une vraie capture d'écran CoursesU (page catégorie)</text>
</svg>
